<svg width="50" height="48" viewBox="0 0 50 48" fill="none" xmlns="http://www.w3.org/2000/svg">
<path d="M35.6833 24.7604C33.8556 23.1562 32.1153 21.5903 30.4625 20.0625C28.8097 18.5347 27.3611 17.0451 26.1167 15.5938C24.8722 14.1424 23.8806 12.7387 23.1417 11.3828C22.4028 10.0269 22.0333 8.71875 22.0333 7.45833C22.0333 5.47222 22.7139 3.81076 24.075 2.47396C25.4361 1.13715 27.1278 0.46875 29.15 0.46875C30.3167 0.46875 31.4736 0.783854 32.6208 1.41406C33.7681 2.04427 34.7889 2.8941 35.6833 3.96354C36.5778 2.8941 37.5986 2.04427 38.7458 1.41406C39.8931 0.783854 41.05 0.46875 42.2167 0.46875C44.2389 0.46875 45.9306 1.13715 47.2917 2.47396C48.6528 3.81076 49.3333 5.47222 49.3333 7.45833C49.3333 8.71875 48.9639 10.0269 48.225 11.3828C47.4861 12.7387 46.4945 14.1424 45.25 15.5938C44.0056 17.0451 42.557 18.5347 40.9042 20.0625C39.2514 21.5903 37.5111 23.1562 35.6833 24.7604ZM35.6833 20.0052C38.25 17.7135 40.5833 15.441 42.6833 13.1875C44.7833 10.934 45.8333 9.0243 45.8333 7.45833C45.8333 6.42708 45.4931 5.57726 44.8125 4.90885C44.132 4.24045 43.2667 3.90625 42.2167 3.90625C41.5556 3.90625 40.9042 4.05903 40.2625 4.36458C39.6208 4.67014 38.9695 5.24306 38.3083 6.08333L35.6833 9.23437L33.0583 6.08333C32.3972 5.24306 31.7458 4.67014 31.1042 4.36458C30.4625 4.05903 29.8111 3.90625 29.15 3.90625C28.1 3.90625 27.2347 4.24045 26.5542 4.90885C25.8736 5.57726 25.5333 6.42708 25.5333 7.45833C25.5333 9.0243 26.5833 10.934 28.6833 13.1875C30.7833 15.441 33.1167 17.7135 35.6833 20.0052ZM31.0167 47.4479L12.875 42.349V45.6146H0.333344V23.0417H18.3583L33.2333 28.5417C34.2833 28.9236 35.1681 29.5443 35.8875 30.4036C36.607 31.263 36.9667 32.4948 36.9667 34.099H43.6167C45.25 34.099 46.6111 34.6719 47.7 35.8177C48.7889 36.9635 49.3333 38.5104 49.3333 40.4583V41.9479L31.0167 47.4479ZM3.83334 42.1771H9.31668V26.4792H3.83334V42.1771ZM30.7833 43.8958L45.7167 39.4271C45.4833 38.7014 45.1917 38.2049 44.8417 37.9375C44.4917 37.6701 44.0833 37.5365 43.6167 37.5365H31.5417C30.375 37.5365 29.2958 37.4601 28.3042 37.3073C27.3125 37.1545 26.3695 36.9444 25.475 36.6771L20.75 35.2448L22.0333 31.9219L26.2917 33.2969C27.2639 33.6024 28.1875 33.8125 29.0625 33.9271C29.9375 34.0417 31.3278 34.099 33.2333 34.099C33.2333 33.6406 33.1458 33.1918 32.9708 32.7526C32.7958 32.3134 32.4945 31.9983 32.0667 31.8073L17.775 26.4792H12.875V38.7396L30.7833 43.8958Z" fill="#CA7F3C"/>
</svg>
